<?xml version="1.0" standalone="no"?>
<!DOCTYPE svg PUBLIC "-//W3C//DTD SVG 20010904//EN"
 "http://www.w3.org/TR/2001/REC-SVG-20010904/DTD/svg10.dtd">
<svg version="1.0" xmlns="http://www.w3.org/2000/svg"
 width="1563.000000pt" height="1563.000000pt" viewBox="0 0 1563.000000 1563.000000"
 preserveAspectRatio="xMidYMid meet">

<g transform="translate(0.000000,1563.000000) scale(0.100000,-0.100000)"
fill="#000000" stroke="none">
<path d="M4410 10617 c0 -1 34 -25 75 -52 85 -55 122 -111 111 -166 -3 -16 -4
-29 -3 -29 1 0 17 -4 34 -9 26 -8 37 -6 59 11 22 18 25 26 19 57 -11 59 -34
86 -115 140 -68 45 -84 51 -129 51 -28 0 -51 -1 -51 -3z"/>
<path d="M3345 10597 c64 -22 132 -59 263 -146 67 -45 126 -81 131 -81 4 0 16
9 26 20 17 19 15 21 -83 84 -147 97 -219 128 -305 133 -72 3 -72 3 -32 -10z"/>
<path d="M4170 10484 c-87 -29 -197 -97 -277 -171 l-52 -48 7 -118 7 -118 37
28 37 28 1 77 c0 75 1 79 36 118 52 57 148 127 226 165 37 18 64 35 61 39 -7
7 -61 7 -83 0z"/>
<path d="M3152 10416 c-64 -62 -65 -64 -43 -75 37 -20 74 -4 137 60 48 49 56
61 44 69 -38 24 -71 11 -138 -54z"/>
<path d="M6948 9773 c-160 -324 -366 -742 -458 -930 l-168 -343 192 0 193 0
99 215 99 215 536 0 536 0 98 -215 98 -215 188 0 c104 0 189 3 189 8 0 4 -202
421 -448 927 l-448 920 -208 3 -207 2 -291 -587z m692 -118 c100 -214 185
-396 187 -402 4 -10 -76 -13 -381 -13 -212 0 -386 2 -386 5 0 2 73 159 161
347 89 189 175 372 191 407 16 36 32 60 37 55 4 -5 90 -184 191 -399z"/>
<path d="M4570 10262 c120 -40 198 -104 207 -170 5 -34 2 -43 -16 -54 -11 -7
-21 -17 -21 -22 0 -14 97 0 126 18 23 16 26 23 21 58 -7 54 -53 100 -144 145
-61 30 -86 37 -150 40 l-78 3 55 -18z"/>
<path d="M3214 10254 c118 -26 234 -88 361 -193 27 -22 53 -41 57 -41 5 0 8
18 8 40 0 37 -4 42 -57 78 -127 86 -261 133 -377 131 l-61 -1 69 -14z"/>
<path d="M4280 10126 c-170 -63 -402 -248 -431 -344 -6 -20 -9 -58 -7 -84 l3
-47 50 38 c40 31 53 47 63 85 22 84 189 234 345 310 59 30 82 46 71 50 -23 9
-55 6 -94 -8z"/>
<path d="M3034 10101 c-22 -15 -47 -40 -57 -54 l-17 -26 41 -11 41 -11 58 60
c44 44 55 61 43 65 -32 13 -72 5 -109 -23z"/>
<path d="M3720 9981 c0 -28 4 -51 9 -51 15 0 18 80 4 92 -10 8 -13 0 -13 -41z"/>
<path d="M9185 9920 c-87 -14 -191 -47 -259 -83 -165 -87 -252 -260 -217 -428
43 -205 199 -296 616 -358 318 -48 360 -59 397 -105 36 -44 15 -125 -43 -167
-81 -57 -299 -79 -448 -44 -121 29 -236 104 -303 198 -12 16 -23 11 -143 -58
-71 -42 -131 -77 -132 -79 -9 -8 91 -115 151 -162 150 -119 337 -174 586 -174
260 0 466 63 576 176 76 77 98 140 99 274 0 128 -21 185 -95 254 -91 85 -213
128 -482 171 -306 49 -343 56 -386 77 -90 43 -95 137 -10 202 52 38 129 56
248 56 177 0 281 -39 387 -146 l63 -63 118 66 c64 36 123 69 130 73 10 5 -1
23 -43 68 -153 166 -355 249 -620 257 -71 2 -157 0 -190 -5z"/>
<path d="M10858 9910 c-173 -28 -294 -86 -410 -200 -72 -71 -94 -100 -127
-170 -62 -131 -76 -193 -76 -350 1 -110 5 -150 23 -215 65 -226 221 -389 445
-463 319 -106 682 -39 881 162 64 64 122 152 141 214 l6 22 -175 0 c-110 0
-176 -4 -176 -10 0 -16 -72 -91 -112 -116 -69 -44 -149 -64 -255 -64 -54 0
-120 6 -148 14 -163 43 -276 165 -308 334 l-6 32 604 0 605 0 0 28 c0 64 -24
213 -47 292 -57 197 -167 333 -334 413 -52 25 -128 53 -169 62 -87 20 -280 28
-362 15z m344 -279 c106 -41 194 -146 223 -264 l7 -27 -428 2 c-492 3 -448 -8
-393 104 48 101 121 163 234 200 27 9 82 13 170 11 107 -3 140 -7 187 -26z"/>
<path d="M4640 9885 c203 -47 347 -188 270 -265 l-20 -20 55 0 c97 0 124 60
62 142 -64 84 -205 145 -352 153 l-80 5 65 -15z"/>
<path d="M3140 9873 c81 -13 226 -79 387 -174 46 -27 88 -49 93 -49 6 0 10 12
10 28 0 23 -11 33 -83 74 -162 92 -273 129 -377 126 -30 0 -44 -3 -30 -5z"/>
<path d="M4340 9741 c-135 -37 -263 -106 -381 -205 -110 -92 -110 -94 -107
-215 l3 -102 48 37 c46 36 47 38 47 91 0 66 15 97 73 150 113 104 250 187 380
228 56 18 65 23 45 28 -31 9 -33 9 -108 -12z"/>
<path d="M2985 9714 c-32 -16 -135 -113 -135 -126 0 -15 85 -8 109 9 13 9 40
34 59 55 20 22 52 48 71 58 l36 19 -55 0 c-31 1 -68 -6 -85 -15z"/>
<path d="M4769 9494 c120 -25 272 -112 311 -177 27 -43 25 -76 -6 -108 l-25
-26 37 -6 c40 -7 77 8 108 42 37 41 4 114 -80 172 -112 77 -240 119 -354 118
l-55 -1 64 -14z"/>
<path d="M3105 9471 c146 -35 260 -90 423 -205 l92 -65 0 40 c0 38 -3 41 -71
85 -152 99 -291 148 -444 159 l-80 5 80 -19z"/>
<path d="M4423 9335 c-169 -46 -354 -152 -490 -281 l-73 -69 0 -139 c0 -109 3
-136 13 -129 6 5 31 24 55 42 l42 33 0 96 0 97 68 64 c131 124 289 219 452
272 l85 28 -50 0 c-27 0 -73 -7 -102 -14z"/>
<path d="M2860 9308 c-44 -22 -182 -152 -172 -163 11 -10 74 -5 101 10 16 8
47 36 69 63 23 27 62 60 87 73 25 13 45 27 45 31 0 17 -87 7 -130 -14z"/>
<path d="M4880 9039 c112 -25 272 -104 328 -161 71 -74 67 -149 -11 -184 -31
-14 -30 -15 35 -11 99 4 152 52 134 121 -24 96 -239 219 -430 245 -122 17
-152 12 -56 -10z"/>
<path d="M3045 9011 c108 -23 178 -47 265 -91 78 -39 189 -110 247 -156 23
-19 44 -34 47 -34 3 0 6 17 6 39 0 34 -5 41 -42 66 -182 120 -338 176 -528
189 l-85 6 90 -19z"/>
<path d="M4501 8860 c-155 -41 -330 -135 -474 -255 -83 -70 -131 -142 -148
-223 -10 -51 -8 -126 5 -139 2 -3 25 9 49 27 41 29 45 36 50 85 8 81 49 156
120 221 133 120 332 234 483 275 44 12 81 23 83 25 13 12 -104 0 -168 -16z"/>
<path d="M2801 8838 c-40 -15 -73 -40 -125 -93 -39 -40 -80 -77 -91 -83 -17
-10 -11 -11 33 -12 68 0 83 8 162 89 36 38 84 76 108 86 35 16 40 21 25 26
-30 12 -55 9 -112 -13z"/>
<path d="M4920 8584 c143 -29 308 -101 389 -170 98 -84 95 -175 -7 -220 -25
-12 -24 -12 26 -13 123 -2 194 79 148 168 -55 105 -317 230 -496 237 -47 1
-74 1 -60 -2z"/>
<path d="M3017 8536 c149 -40 315 -128 504 -267 37 -27 70 -49 73 -49 4 0 6
17 4 38 -3 34 -9 41 -87 94 -180 122 -364 197 -506 204 l-80 5 92 -25z"/>
<path d="M4560 8381 c-208 -56 -422 -177 -581 -329 l-79 -77 -3 -132 c-1 -72
1 -134 5 -138 4 -4 27 8 52 26 l46 32 0 101 0 101 86 82 c153 148 355 266 545
318 52 15 99 28 104 30 38 13 -123 0 -175 -14z"/>
<path d="M2675 8346 c-27 -12 -85 -55 -127 -93 -53 -49 -91 -75 -122 -84 -25
-7 -42 -17 -40 -21 9 -14 59 -9 130 13 55 17 79 32 128 78 73 69 113 97 163
116 l38 14 -60 0 c-43 1 -74 -6 -110 -23z"/>
<path d="M2805 8080 c218 -30 435 -130 658 -304 129 -100 117 -95 117 -43 l0
45 -90 61 c-241 165 -429 236 -650 246 -99 4 -101 4 -35 -5z"/>
<path d="M5035 8073 c123 -17 263 -70 354 -133 164 -114 211 -205 140 -271
-17 -16 -42 -32 -55 -35 -13 -3 -24 -11 -24 -16 0 -17 106 -1 151 22 41 21 69
63 69 103 0 77 -174 225 -334 283 -88 32 -205 54 -273 53 -32 -1 -45 -4 -28
-6z"/>
<path d="M6665 7935 c-121 -26 -204 -77 -259 -159 -114 -168 -77 -457 72 -574
116 -92 291 -124 467 -87 139 30 225 92 276 199 44 94 43 96 -50 96 -72 0 -80
-2 -86 -21 -12 -36 -66 -89 -119 -116 -39 -20 -71 -27 -132 -31 -109 -6 -180
15 -241 71 -70 64 -88 106 -88 207 0 73 4 93 29 143 51 104 149 152 299 145
104 -4 185 -40 224 -99 l26 -39 79 0 c78 0 79 0 72 23 -25 82 -88 160 -163
201 -97 52 -273 70 -406 41z"/>
<path d="M11870 7890 l0 -60 70 0 70 0 0 60 0 60 -70 0 -70 0 0 -60z"/>
<path d="M12210 7800 l0 -100 -55 0 -55 0 0 -60 0 -60 55 0 55 0 0 -175 c0
-202 9 -241 68 -277 40 -25 163 -35 242 -21 l45 8 3 57 3 56 -91 -2 c-130 -2
-130 -1 -130 200 l0 154 105 0 105 0 0 60 0 60 -105 0 -105 0 0 100 0 100 -70
0 -70 0 0 -100z"/>
<path d="M2585 7862 c-66 -28 -84 -41 -166 -118 -61 -56 -91 -77 -134 -90
-101 -32 -53 -47 58 -18 86 22 110 37 194 116 46 44 97 80 136 98 l62 29 -55
0 c-30 0 -73 -8 -95 -17z"/>
<path d="M4736 7868 c-232 -30 -550 -191 -744 -375 l-72 -68 1 -120 c1 -66 4
-130 7 -142 l7 -23 48 31 47 31 0 112 0 112 48 45 c187 179 427 313 665 374
94 24 91 36 -7 23z"/>
<path d="M7556 7724 c-147 -46 -224 -165 -214 -330 13 -194 151 -305 364 -291
138 8 226 65 278 176 17 37 21 66 21 141 0 84 -3 102 -28 152 -16 32 -47 73
-70 93 -78 67 -236 94 -351 59z m209 -123 c49 -22 73 -48 91 -98 37 -105 -3
-225 -90 -264 -82 -37 -200 -14 -243 47 -57 82 -55 210 4 276 48 55 163 74
238 39z"/>
<path d="M8367 7726 c-20 -8 -53 -26 -72 -40 l-35 -27 0 30 0 31 -70 0 -70 0
0 -300 0 -300 70 0 70 0 2 217 3 217 48 30 c32 20 65 31 101 34 48 4 56 1 87
-26 l34 -30 3 -221 3 -221 69 0 70 0 2 217 3 217 48 30 c32 20 65 31 101 34
48 4 56 1 87 -26 l34 -30 3 -221 3 -221 70 0 69 0 0 238 c0 227 -1 240 -22
282 -36 70 -89 95 -203 95 -95 0 -141 -15 -193 -65 l-23 -22 -39 36 c-21 19
-56 39 -77 45 -51 15 -130 13 -176 -3z"/>
<path d="M9487 7726 c-20 -8 -53 -26 -72 -40 l-35 -27 0 30 0 31 -70 0 -70 0
0 -300 0 -300 70 0 70 0 2 217 3 217 48 30 c32 20 65 31 101 34 48 4 56 1 87
-26 l34 -30 3 -221 3 -221 69 0 70 0 2 217 3 217 48 30 c32 20 65 31 101 34
48 4 56 1 87 -26 l34 -30 3 -221 3 -221 70 0 69 0 0 238 c0 227 -1 240 -22
282 -36 70 -89 95 -203 95 -95 0 -141 -15 -193 -65 l-23 -22 -39 36 c-21 19
-56 39 -77 45 -51 15 -130 13 -176 -3z"/>
<path d="M11361 7726 c-24 -8 -61 -29 -82 -46 l-39 -31 0 36 0 35 -70 0 -70 0
0 -300 0 -300 70 0 70 0 0 209 0 210 38 30 c60 51 162 67 221 36 51 -26 61
-72 61 -290 l0 -195 71 0 70 0 -3 238 c-3 223 -4 239 -25 279 -34 64 -96 96
-192 100 -47 2 -93 -3 -120 -11z"/>
<path d="M10362 7483 c3 -224 4 -240 25 -280 61 -114 268 -139 389 -47 l44 34
0 -35 0 -35 70 0 70 0 0 300 0 300 -70 0 -70 0 0 -209 0 -210 -37 -30 c-63
-52 -167 -68 -224 -34 -50 30 -59 71 -59 288 l0 195 -71 0 -70 0 3 -237z"/>
<path d="M11870 7420 l0 -300 70 0 70 0 0 300 0 300 -70 0 -70 0 0 -300z"/>
<path d="M12610 7715 c0 -3 57 -123 126 -268 140 -290 152 -330 111 -371 -33
-33 -96 -49 -163 -40 l-55 6 3 -58 3 -58 40 -9 c59 -13 167 -2 213 22 23 11
55 38 72 58 27 33 137 251 315 631 l44 92 -78 0 -77 0 -99 -215 c-54 -119
-102 -212 -106 -208 -5 5 -51 100 -103 213 l-94 205 -76 3 c-42 2 -76 0 -76
-3z"/>
<path d="M2715 7525 c258 -41 499 -154 740 -349 39 -31 74 -56 78 -56 5 0 7
19 5 42 -3 41 -5 44 -102 110 -241 166 -535 271 -746 267 l-55 -1 80 -13z"/>
<path d="M5099 7529 c201 -24 395 -112 544 -249 57 -52 58 -53 55 -103 -3 -44
-8 -54 -39 -79 -20 -16 -54 -36 -75 -43 -34 -12 -36 -14 -14 -16 76 -6 138 12
197 57 31 23 33 29 33 84 0 58 -1 59 -52 105 -181 163 -430 259 -661 254 l-62
-2 74 -8z"/>
<path d="M2455 7296 c-75 -24 -110 -49 -207 -147 -73 -74 -106 -101 -138 -110
-37 -11 -39 -14 -21 -21 30 -11 118 8 165 36 23 13 73 60 112 103 67 74 99 96
204 141 22 9 19 11 -25 11 -27 0 -68 -6 -90 -13z"/>
<path d="M4725 7290 c-214 -43 -401 -133 -610 -291 -120 -91 -165 -134 -165
-158 0 -19 6 -21 54 -21 50 0 54 2 59 28 11 52 282 251 453 333 103 49 238 94
327 109 37 7 67 14 67 16 0 10 -103 1 -185 -16z"/>
<path d="M4408 6813 c18 -2 45 -2 60 0 15 2 0 4 -33 4 -33 0 -45 -2 -27 -4z"/>
<path d="M4605 6794 c346 -53 600 -224 735 -494 83 -167 106 -292 76 -410 -50
-194 -212 -309 -481 -341 -60 -7 -54 -7 40 -4 323 12 524 152 558 387 8 58 7
88 -5 149 -31 149 -121 320 -231 436 -65 69 -200 160 -298 201 -130 54 -311
92 -429 91 -51 -1 -49 -2 35 -15z"/>
<path d="M11520 6660 l0 -60 70 0 70 0 0 60 0 60 -70 0 -70 0 0 -60z"/>
<path d="M6400 6295 l0 -405 80 0 80 0 0 175 0 175 253 2 252 3 3 68 3 67
-256 0 -255 0 0 90 0 90 295 0 295 0 0 70 0 70 -375 0 -375 0 0 -405z"/>
<path d="M9960 6565 l0 -135 -46 29 c-121 77 -301 64 -407 -28 -110 -97 -128
-304 -37 -437 92 -133 310 -165 448 -64 l42 30 0 -35 0 -35 70 0 70 0 0 405 0
405 -70 0 -70 0 0 -135z m-80 -204 c81 -41 80 -40 80 -170 l0 -116 -40 -28
c-134 -95 -293 -68 -351 58 -50 108 3 232 116 273 48 18 144 10 195 -17z"/>
<path d="M3345 6683 c-137 -19 -394 -92 -490 -140 -136 -68 -262 -198 -307
-318 -32 -85 -33 -231 -1 -291 50 -93 156 -154 267 -154 l51 0 -59 25 c-117
48 -179 141 -178 269 1 188 135 370 345 470 116 55 339 117 502 139 17 2 1 4
-35 4 -36 0 -78 -2 -95 -4z"/>
<path d="M3904 6629 c22 -195 122 -429 246 -578 59 -71 174 -150 261 -180 37
-13 98 -24 144 -27 l80 -4 -58 15 c-126 32 -254 115 -339 220 -53 65 -145 242
-178 343 -26 80 -50 193 -50 238 l0 34 -56 0 -57 0 7 -61z"/>
<path d="M11050 6570 l0 -100 -55 0 -55 0 0 -60 0 -60 55 0 55 0 0 -175 c0
-202 9 -241 68 -277 40 -25 163 -35 242 -21 l45 8 3 57 3 56 -91 -2 c-130 -2
-130 -1 -130 200 l0 154 105 0 105 0 0 60 0 60 -105 0 -105 0 0 100 0 100 -70
0 -70 0 0 -100z"/>
<path d="M7386 6494 c-147 -46 -224 -165 -214 -330 13 -194 151 -305 364 -291
138 8 226 65 278 176 17 37 21 66 21 141 0 84 -3 102 -28 152 -16 32 -47 73
-70 93 -78 67 -236 94 -351 59z m209 -123 c49 -22 73 -48 91 -98 37 -105 -3
-225 -90 -264 -82 -37 -200 -14 -243 47 -57 82 -55 210 4 276 48 55 163 74
238 39z"/>
<path d="M8961 6496 c-24 -8 -61 -29 -82 -46 l-39 -31 0 36 0 35 -70 0 -70 0
0 -300 0 -300 70 0 70 0 0 209 0 210 38 30 c60 51 162 67 221 36 51 -26 61
-72 61 -290 l0 -195 71 0 70 0 -3 238 c-3 223 -4 239 -25 279 -34 64 -96 96
-192 100 -47 2 -93 -3 -120 -11z"/>
<path d="M10433 6496 c-90 -23 -155 -79 -178 -153 -6 -22 -4 -23 64 -23 67 0
73 2 99 31 73 81 292 55 292 -35 0 -22 -4 -24 -77 -31 -193 -17 -329 -64 -380
-132 -24 -31 -28 -46 -28 -102 0 -52 5 -73 23 -98 66 -92 252 -108 405 -34
l56 27 3 -25 c3 -25 6 -26 73 -29 l70 -3 -2 103 c-2 57 -4 166 -5 243 -4 170
-15 198 -105 241 -47 23 -70 28 -157 30 -61 2 -121 -2 -153 -10z m277 -375 l0
-68 -72 -33 c-53 -25 -90 -34 -144 -38 -68 -4 -74 -3 -98 21 -33 33 -33 67 -2
104 32 38 175 79 284 82 l32 1 0 -69z"/>
<path d="M11996 6494 c-147 -46 -224 -165 -214 -330 13 -194 151 -305 364
-291 138 8 226 65 278 176 17 37 21 66 21 141 0 84 -3 102 -28 152 -16 32 -47
73 -70 93 -78 67 -236 94 -351 59z m209 -123 c49 -22 73 -48 91 -98 37 -105
-3 -225 -90 -264 -82 -37 -200 -14 -243 47 -57 82 -55 210 4 276 48 55 163 74
238 39z"/>
<path d="M12821 6496 c-24 -8 -61 -29 -82 -46 l-39 -31 0 36 0 35 -70 0 -70 0
0 -300 0 -300 70 0 70 0 0 209 0 210 38 30 c60 51 162 67 221 36 51 -26 61
-72 61 -290 l0 -195 71 0 70 0 -3 238 c-3 223 -4 239 -25 279 -34 64 -96 96
-192 100 -47 2 -93 -3 -120 -11z"/>
<path d="M7952 6253 c3 -224 4 -240 25 -280 61 -114 268 -139 389 -47 l44 34
0 -35 0 -35 70 0 70 0 0 300 0 300 -70 0 -70 0 0 -209 0 -210 -37 -30 c-63
-52 -167 -68 -224 -34 -50 30 -59 71 -59 288 l0 195 -71 0 -70 0 3 -237z"/>
<path d="M11520 6190 l0 -300 70 0 70 0 0 300 0 300 -70 0 -70 0 0 -300z"/>
<path d="M3711 6043 c-78 -151 -184 -268 -331 -362 -97 -63 -179 -99 -340
-152 -144 -48 -145 -48 -90 -49 61 0 271 63 393 118 169 77 336 216 425 354
l43 66 -28 56 -28 55 -44 -86z"/>
</g>
</svg>
