<?xml version="1.0" standalone="no"?>
<!DOCTYPE svg PUBLIC "-//W3C//DTD SVG 20010904//EN"
 "http://www.w3.org/TR/2001/REC-SVG-20010904/DTD/svg10.dtd">
<svg version="1.0" xmlns="http://www.w3.org/2000/svg"
 width="625.000000pt" height="625.000000pt" viewBox="0 0 625.000000 625.000000"
 preserveAspectRatio="xMidYMid meet">

<g transform="translate(0.000000,625.000000) scale(0.100000,-0.100000)"
fill="#000000" stroke="none">
<path d="M390 3040 l0 -2800 550 0 550 0 0 1675 0 1675 683 2 682 3 0 385 0
385 -683 3 -682 2 2 348 3 347 2197 3 2198 2 0 385 0 385 -2750 0 -2750 0 0
-2800z"/>
<path d="M3400 2975 l0 -1725 -300 0 -300 0 0 1020 0 1020 -500 0 -500 0 0
-1520 0 -1520 1300 0 1300 0 0 1725 0 1725 215 0 215 0 0 -1725 0 -1725 500 0
500 0 0 2225 0 2225 -1215 0 -1215 0 0 -1725z"/>
</g>
</svg>
